<svg enable-background="new 0 0 48 48" viewBox="0 0 48 48" xmlns="http://www.w3.org/2000/svg">
    <g style="fill:none;stroke:#303030;stroke-width:.7;stroke-linecap:round;stroke-linejoin:round;stroke-miterlimit:10">
        <circle cx="23.99761" cy="22.74357" r="3.33635" />
        <path
            d="m18.27517 30.535c0-1.78664 1.4618-3.24844 3.24844-3.24844h4.948c1.78664 0 3.24844 1.4618 3.24844 3.24844" />
        <path d="m12.89632 18.03865v7.85091" />
        <path d="m12.89632 27.60907v.74926" />
        <path
            d="m26.78475 14.35696c.04622.03979.10517.06168.16615.06172l9.0141.00495c.77 0 1.4.62 1.4 1.4v18.55541c0 .81103-.66357 1.47459-1.47459 1.47459h-23.78082c-.81102 0-1.47459-.66356-1.47459-1.47459v-18.55542c0-.78.63-1.4 1.4-1.4h9.06637c.07982 0 .15705-.02833.21793-.07996l2.53571-2.15006c.06976-.06458.3504-.06757.44.02002z" />
    </g>
</svg>